<svg width="21" height="20" viewBox="0 0 21 20" fill="none" xmlns="http://www.w3.org/2000/svg">
<path d="M15.1766 19.1987C14.9148 19.1987 14.6514 19.1354 14.4087 19.0081L10.0319 16.706L5.61093 19.0073C5.33894 19.1519 5.03166 19.2168 4.72442 19.1946C4.41718 19.1724 4.12245 19.0639 3.87412 18.8816C3.62415 18.7017 3.43001 18.4549 3.314 18.1697C3.198 17.8844 3.16483 17.5722 3.21831 17.2689L4.05428 12.3955L0.499772 8.9019C0.278166 8.68781 0.121459 8.41554 0.0476604 8.11638C-0.026138 7.81722 -0.0140334 7.50331 0.0825833 7.21072C0.176875 6.91766 0.351789 6.65709 0.587297 6.45882C0.822804 6.26056 1.10939 6.13263 1.41422 6.08967L6.30678 5.37861L8.53126 0.918456C8.81152 0.351528 9.37765 0 10.0102 0C10.6428 0 11.209 0.351528 11.4892 0.918456L13.6777 5.35219L18.6062 6.08967C18.9111 6.13263 19.1977 6.26056 19.4332 6.45882C19.6687 6.65709 19.8436 6.91766 19.9379 7.21072C20.0341 7.50335 20.046 7.81716 19.9722 8.11624C19.8985 8.41532 19.742 8.68759 19.5207 8.9019L15.9798 12.3531L16.8022 17.2697C16.8552 17.573 16.8218 17.885 16.7058 18.1702C16.5898 18.4554 16.396 18.7022 16.1464 18.8824C15.8644 19.0871 15.5251 19.1978 15.1766 19.1987ZM1.61681 7.75523L5.15691 11.2064C5.54527 11.586 5.72304 12.1305 5.63175 12.6654L4.79658 17.5395L5.23859 18.2987L4.86544 17.59L9.24152 15.2886C9.47822 15.1643 9.74156 15.0993 10.0089 15.0991C10.2763 15.099 10.5397 15.1637 10.7765 15.2878L15.1534 17.59L15.2223 17.5395L14.3863 12.6662C14.3414 12.4027 14.361 12.1322 14.4436 11.878C14.5262 11.6237 14.6692 11.3933 14.8604 11.2064L18.4013 7.75523L18.3748 7.67275L13.4823 6.96169C13.2177 6.92295 12.9665 6.8206 12.7502 6.66342C12.5338 6.50624 12.3589 6.29892 12.2403 6.05925L10.0519 1.62551C10.0455 1.6127 10.0383 1.59989 10.0086 1.59989L7.77695 6.05925C7.65876 6.29888 7.48412 6.50621 7.26805 6.66341C7.05199 6.82061 6.80098 6.92297 6.5366 6.96169L1.64244 7.67275L1.05709 8.32776L1.61681 7.75523Z" fill="#EDB219"/>
</svg>
