<svg width="32" height="32" viewBox="0 0 32 32" fill="none" xmlns="http://www.w3.org/2000/svg">
<g id="cross">
<path id="Vector" d="M16.0003 2.66666C13.3632 2.66666 10.7854 3.44865 8.59273 4.91374C6.40007 6.37882 4.69111 8.4612 3.68194 10.8976C2.67277 13.3339 2.40872 16.0148 2.92319 18.6012C3.43766 21.1876 4.70754 23.5634 6.57224 25.4281C8.43694 27.2928 10.8127 28.5627 13.3991 29.0771C15.9855 29.5916 18.6664 29.3276 21.1028 28.3184C23.5391 27.3092 25.6215 25.6003 27.0866 23.4076C28.5517 21.2149 29.3337 18.6371 29.3337 16C29.3337 14.249 28.9888 12.5152 28.3187 10.8976C27.6487 9.27988 26.6665 7.81002 25.4284 6.57191C24.1903 5.33379 22.7205 4.35167 21.1028 3.6816C19.4851 3.01154 17.7513 2.66666 16.0003 2.66666ZM20.2803 18.3867C20.4053 18.5106 20.5045 18.6581 20.5722 18.8206C20.6399 18.983 20.6747 19.1573 20.6747 19.3333C20.6747 19.5093 20.6399 19.6836 20.5722 19.8461C20.5045 20.0086 20.4053 20.156 20.2803 20.28C20.1564 20.405 20.0089 20.5042 19.8464 20.5719C19.684 20.6395 19.5097 20.6744 19.3337 20.6744C19.1576 20.6744 18.9834 20.6395 18.8209 20.5719C18.6584 20.5042 18.5109 20.405 18.387 20.28L16.0003 17.88L13.6137 20.28C13.4897 20.405 13.3422 20.5042 13.1798 20.5719C13.0173 20.6395 12.843 20.6744 12.667 20.6744C12.491 20.6744 12.3167 20.6395 12.1542 20.5719C11.9918 20.5042 11.8443 20.405 11.7203 20.28C11.5954 20.156 11.4962 20.0086 11.4285 19.8461C11.3608 19.6836 11.3259 19.5093 11.3259 19.3333C11.3259 19.1573 11.3608 18.983 11.4285 18.8206C11.4962 18.6581 11.5954 18.5106 11.7203 18.3867L14.1203 16L11.7203 13.6133C11.4693 13.3623 11.3282 13.0217 11.3282 12.6667C11.3282 12.3116 11.4693 11.9711 11.7203 11.72C11.9714 11.4689 12.3119 11.3279 12.667 11.3279C13.0221 11.3279 13.3626 11.4689 13.6137 11.72L16.0003 14.12L18.387 11.72C18.6381 11.4689 18.9786 11.3279 19.3337 11.3279C19.6887 11.3279 20.0293 11.4689 20.2803 11.72C20.5314 11.9711 20.6725 12.3116 20.6725 12.6667C20.6725 13.0217 20.5314 13.3623 20.2803 13.6133L17.8803 16L20.2803 18.3867Z" fill="#DB1E29"/>
</g>
</svg>
