<svg width="32" height="32" viewBox="0 0 32 32" fill="none" xmlns="http://www.w3.org/2000/svg">
<g id="bx:bxs-lock-alt" opacity="0.4">
<path id="Vector" d="M26.1428 16.1428C26.1428 14.7247 24.9896 13.5714 23.5714 13.5714H22.2857V9.71428C22.2857 6.16956 19.4018 3.28571 15.8571 3.28571C12.3124 3.28571 9.42855 6.16956 9.42855 9.71428V13.5714H8.14284C6.7247 13.5714 5.57141 14.7247 5.57141 16.1428V26.4286C5.57141 27.8467 6.7247 29 8.14284 29H23.5714C24.9896 29 26.1428 27.8467 26.1428 26.4286V16.1428ZM12 9.71428C12 7.58771 13.7306 5.85713 15.8571 5.85713C17.9837 5.85713 19.7143 7.58771 19.7143 9.71428V13.5714H12V9.71428Z" fill="#333333"/>
</g>
</svg>
