<svg width="31" height="31" viewBox="0 0 31 31" fill="none" xmlns="http://www.w3.org/2000/svg">
<g id="Minus">
<path id="Vector" fill-rule="evenodd" clip-rule="evenodd" d="M15.5 28.4167C22.6339 28.4167 28.4167 22.6339 28.4167 15.5C28.4167 8.36612 22.6339 2.58333 15.5 2.58333C8.36611 2.58333 2.58331 8.36612 2.58331 15.5C2.58331 22.6339 8.36611 28.4167 15.5 28.4167ZM10.3333 14.2083C9.99074 14.2083 9.6622 14.3444 9.41997 14.5867C9.17773 14.8289 9.04165 15.1574 9.04165 15.5C9.04165 15.8426 9.17773 16.1711 9.41997 16.4133C9.6622 16.6556 9.99074 16.7917 10.3333 16.7917H20.6666C21.0092 16.7917 21.3378 16.6556 21.58 16.4133C21.8222 16.1711 21.9583 15.8426 21.9583 15.5C21.9583 15.1574 21.8222 14.8289 21.58 14.5867C21.3378 14.3444 21.0092 14.2083 20.6666 14.2083H10.3333Z" fill="#A28140"/>
</g>
</svg>
