<svg width="31" height="31" viewBox="0 0 31 31" fill="none" xmlns="http://www.w3.org/2000/svg">
<g id="Plus" clip-path="url(#clip0_4_126)">
<g id="Layer 2">
<g id="plus-circle">
<path id="Vector" d="M15.5 2.58333C12.9453 2.58333 10.448 3.34088 8.32387 4.76018C6.19974 6.17948 4.54417 8.19679 3.56654 10.557C2.58891 12.9172 2.33312 15.5143 2.83151 18.0199C3.3299 20.5255 4.56009 22.827 6.36652 24.6335C8.17295 26.4399 10.4745 27.6701 12.9801 28.1685C15.4857 28.6669 18.0828 28.4111 20.443 27.4334C22.8032 26.4558 24.8205 24.8002 26.2398 22.6761C27.6591 20.552 28.4167 18.0547 28.4167 15.5C28.4167 13.8038 28.0826 12.1241 27.4334 10.557C26.7843 8.98988 25.8329 7.56596 24.6335 6.36653C23.434 5.16711 22.0101 4.21567 20.443 3.56655C18.8759 2.91743 17.1962 2.58333 15.5 2.58333ZM19.375 16.7917H16.7917V19.375C16.7917 19.7176 16.6556 20.0461 16.4133 20.2883C16.1711 20.5306 15.8426 20.6667 15.5 20.6667C15.1574 20.6667 14.8289 20.5306 14.5866 20.2883C14.3444 20.0461 14.2083 19.7176 14.2083 19.375V16.7917H11.625C11.2824 16.7917 10.9539 16.6556 10.7116 16.4133C10.4694 16.1711 10.3333 15.8426 10.3333 15.5C10.3333 15.1574 10.4694 14.8289 10.7116 14.5866C10.9539 14.3444 11.2824 14.2083 11.625 14.2083H14.2083V11.625C14.2083 11.2824 14.3444 10.9539 14.5866 10.7116C14.8289 10.4694 15.1574 10.3333 15.5 10.3333C15.8426 10.3333 16.1711 10.4694 16.4133 10.7116C16.6556 10.9539 16.7917 11.2824 16.7917 11.625V14.2083H19.375C19.7176 14.2083 20.0461 14.3444 20.2883 14.5866C20.5306 14.8289 20.6667 15.1574 20.6667 15.5C20.6667 15.8426 20.5306 16.1711 20.2883 16.4133C20.0461 16.6556 19.7176 16.7917 19.375 16.7917Z" fill="#A28140"/>
</g>
</g>
</g>
<defs>
<clipPath id="clip0_4_126">
<rect width="31" height="31" fill="white"/>
</clipPath>
</defs>
</svg>
