<svg width="35" height="35" viewBox="0 0 35 35" fill="none" xmlns="http://www.w3.org/2000/svg">
<g id="&#240;&#159;&#166;&#134; icon &#34;search&#34;">
<path id="Vector" d="M29.8392 27.8275L25.0225 23.025C26.5766 21.0452 27.4198 18.6003 27.4167 16.0833C27.4167 13.8418 26.752 11.6506 25.5067 9.78688C24.2613 7.92312 22.4913 6.4705 20.4204 5.6127C18.3495 4.75491 16.0708 4.53047 13.8723 4.96777C11.6739 5.40507 9.65446 6.48447 8.06946 8.06946C6.48447 9.65446 5.40507 11.6739 4.96777 13.8723C4.53047 16.0708 4.75491 18.3495 5.6127 20.4204C6.4705 22.4913 7.92312 24.2613 9.78688 25.5067C11.6506 26.752 13.8418 27.4167 16.0833 27.4167C18.6003 27.4198 21.0452 26.5766 23.025 25.0225L27.8275 29.8392C27.9592 29.972 28.1159 30.0773 28.2885 30.1493C28.4612 30.2212 28.6463 30.2582 28.8333 30.2582C29.0204 30.2582 29.2055 30.2212 29.3782 30.1493C29.5508 30.0773 29.7075 29.972 29.8392 29.8392C29.972 29.7075 30.0773 29.5508 30.1493 29.3782C30.2212 29.2055 30.2582 29.0204 30.2582 28.8333C30.2582 28.6463 30.2212 28.4612 30.1493 28.2885C30.0773 28.1159 29.972 27.9592 29.8392 27.8275ZM7.58334 16.0833C7.58334 14.4022 8.08185 12.7588 9.01585 11.361C9.94984 9.96317 11.2774 8.87371 12.8305 8.23036C14.3837 7.58702 16.0928 7.41869 17.7416 7.74666C19.3904 8.07464 20.905 8.88418 22.0937 10.0729C23.2825 11.2617 24.092 12.7762 24.42 14.4251C24.748 16.0739 24.5797 17.783 23.9363 19.3361C23.293 20.8893 22.2035 22.2168 20.8057 23.1508C19.4079 24.0848 17.7645 24.5833 16.0833 24.5833C13.829 24.5833 11.667 23.6878 10.0729 22.0937C8.47887 20.4997 7.58334 18.3377 7.58334 16.0833Z" fill="#231F20"/>
</g>
</svg>
