<svg width="44" height="44" viewBox="0 0 44 44" fill="none" xmlns="http://www.w3.org/2000/svg">
<g id="Trash">
<path id="Vector" d="M18.3333 33C18.8196 33 19.2859 32.8068 19.6297 32.463C19.9735 32.1192 20.1667 31.6529 20.1667 31.1667V20.1667C20.1667 19.6804 19.9735 19.2141 19.6297 18.8703C19.2859 18.5265 18.8196 18.3333 18.3333 18.3333C17.8471 18.3333 17.3808 18.5265 17.037 18.8703C16.6932 19.2141 16.5 19.6804 16.5 20.1667V31.1667C16.5 31.6529 16.6932 32.1192 17.037 32.463C17.3808 32.8068 17.8471 33 18.3333 33ZM36.6667 11H29.3333V9.16667C29.3333 7.70798 28.7539 6.30903 27.7224 5.27758C26.691 4.24613 25.292 3.66667 23.8333 3.66667H20.1667C18.708 3.66667 17.309 4.24613 16.2776 5.27758C15.2461 6.30903 14.6667 7.70798 14.6667 9.16667V11H7.33333C6.8471 11 6.38079 11.1932 6.03697 11.537C5.69315 11.8808 5.5 12.3471 5.5 12.8333C5.5 13.3196 5.69315 13.7859 6.03697 14.1297C6.38079 14.4735 6.8471 14.6667 7.33333 14.6667H9.16667V34.8333C9.16667 36.292 9.74613 37.691 10.7776 38.7224C11.809 39.7539 13.208 40.3333 14.6667 40.3333H29.3333C30.792 40.3333 32.191 39.7539 33.2224 38.7224C34.2539 37.691 34.8333 36.292 34.8333 34.8333V14.6667H36.6667C37.1529 14.6667 37.6192 14.4735 37.963 14.1297C38.3068 13.7859 38.5 13.3196 38.5 12.8333C38.5 12.3471 38.3068 11.8808 37.963 11.537C37.6192 11.1932 37.1529 11 36.6667 11ZM18.3333 9.16667C18.3333 8.68044 18.5265 8.21412 18.8703 7.87031C19.2141 7.52649 19.6804 7.33333 20.1667 7.33333H23.8333C24.3196 7.33333 24.7859 7.52649 25.1297 7.87031C25.4735 8.21412 25.6667 8.68044 25.6667 9.16667V11H18.3333V9.16667ZM31.1667 34.8333C31.1667 35.3196 30.9735 35.7859 30.6297 36.1297C30.2859 36.4735 29.8196 36.6667 29.3333 36.6667H14.6667C14.1804 36.6667 13.7141 36.4735 13.3703 36.1297C13.0265 35.7859 12.8333 35.3196 12.8333 34.8333V14.6667H31.1667V34.8333ZM25.6667 33C26.1529 33 26.6192 32.8068 26.963 32.463C27.3068 32.1192 27.5 31.6529 27.5 31.1667V20.1667C27.5 19.6804 27.3068 19.2141 26.963 18.8703C26.6192 18.5265 26.1529 18.3333 25.6667 18.3333C25.1804 18.3333 24.7141 18.5265 24.3703 18.8703C24.0265 19.2141 23.8333 19.6804 23.8333 20.1667V31.1667C23.8333 31.6529 24.0265 32.1192 24.3703 32.463C24.7141 32.8068 25.1804 33 25.6667 33Z" fill="white"/>
</g>
</svg>
